<mxfile host="app.diagrams.net" modified="2024-04-27T14:27:52.402Z" agent="Mozilla/5.0 (Windows NT 10.0; Win64; x64) AppleWebKit/537.36 (KHTML, like Gecko) Chrome/124.0.0.0 Safari/537.36" etag="wZCF_9SZ8c0UQC1vsoKy" version="23.1.5" type="github">
  <diagram name="Seite-1" id="HyZT6oqMoK3z-srBMmhH">
    <mxGraphModel dx="1841" dy="997" grid="1" gridSize="10" guides="1" tooltips="1" connect="1" arrows="1" fold="1" page="1" pageScale="1" pageWidth="827" pageHeight="1169" math="0" shadow="0">
      <root>
        <mxCell id="0" />
        <mxCell id="1" parent="0" />
        <mxCell id="87w83l3menoGkr8GeRCS-6" style="rounded=0;orthogonalLoop=1;jettySize=auto;html=1;exitX=0.5;exitY=1;exitDx=0;exitDy=0;entryX=0.5;entryY=0;entryDx=0;entryDy=0;endArrow=none;endFill=0;" edge="1" parent="1" source="87w83l3menoGkr8GeRCS-1" target="87w83l3menoGkr8GeRCS-2">
          <mxGeometry relative="1" as="geometry" />
        </mxCell>
        <mxCell id="87w83l3menoGkr8GeRCS-7" style="rounded=0;orthogonalLoop=1;jettySize=auto;html=1;entryX=0.5;entryY=0;entryDx=0;entryDy=0;exitX=0.5;exitY=1;exitDx=0;exitDy=0;endArrow=none;endFill=0;" edge="1" parent="1" source="87w83l3menoGkr8GeRCS-1" target="87w83l3menoGkr8GeRCS-3">
          <mxGeometry relative="1" as="geometry" />
        </mxCell>
        <mxCell id="87w83l3menoGkr8GeRCS-8" style="rounded=0;orthogonalLoop=1;jettySize=auto;html=1;exitX=0.5;exitY=1;exitDx=0;exitDy=0;entryX=0.5;entryY=0;entryDx=0;entryDy=0;endArrow=none;endFill=0;" edge="1" parent="1" source="87w83l3menoGkr8GeRCS-1" target="87w83l3menoGkr8GeRCS-4">
          <mxGeometry relative="1" as="geometry" />
        </mxCell>
        <mxCell id="87w83l3menoGkr8GeRCS-9" style="rounded=0;orthogonalLoop=1;jettySize=auto;html=1;exitX=0.5;exitY=1;exitDx=0;exitDy=0;entryX=0.5;entryY=0;entryDx=0;entryDy=0;endArrow=none;endFill=0;" edge="1" parent="1" source="87w83l3menoGkr8GeRCS-1" target="87w83l3menoGkr8GeRCS-5">
          <mxGeometry relative="1" as="geometry" />
        </mxCell>
        <mxCell id="87w83l3menoGkr8GeRCS-1" value="" style="ellipse;whiteSpace=wrap;html=1;aspect=fixed;" vertex="1" parent="1">
          <mxGeometry x="320" y="40" width="40" height="40" as="geometry" />
        </mxCell>
        <mxCell id="87w83l3menoGkr8GeRCS-23" style="rounded=0;orthogonalLoop=1;jettySize=auto;html=1;exitX=0.5;exitY=1;exitDx=0;exitDy=0;entryX=0.5;entryY=0;entryDx=0;entryDy=0;endArrow=none;endFill=0;" edge="1" parent="1" source="87w83l3menoGkr8GeRCS-2" target="87w83l3menoGkr8GeRCS-22">
          <mxGeometry relative="1" as="geometry" />
        </mxCell>
        <mxCell id="87w83l3menoGkr8GeRCS-24" style="rounded=0;orthogonalLoop=1;jettySize=auto;html=1;exitX=0.5;exitY=1;exitDx=0;exitDy=0;entryX=0.5;entryY=0;entryDx=0;entryDy=0;endArrow=none;endFill=0;" edge="1" parent="1" source="87w83l3menoGkr8GeRCS-2" target="87w83l3menoGkr8GeRCS-21">
          <mxGeometry relative="1" as="geometry" />
        </mxCell>
        <mxCell id="87w83l3menoGkr8GeRCS-25" style="rounded=0;orthogonalLoop=1;jettySize=auto;html=1;exitX=0.5;exitY=1;exitDx=0;exitDy=0;entryX=0.5;entryY=0;entryDx=0;entryDy=0;endArrow=none;endFill=0;" edge="1" parent="1" source="87w83l3menoGkr8GeRCS-2" target="87w83l3menoGkr8GeRCS-20">
          <mxGeometry relative="1" as="geometry" />
        </mxCell>
        <mxCell id="87w83l3menoGkr8GeRCS-26" style="rounded=0;orthogonalLoop=1;jettySize=auto;html=1;exitX=0.5;exitY=1;exitDx=0;exitDy=0;entryX=0.5;entryY=0;entryDx=0;entryDy=0;endArrow=none;endFill=0;" edge="1" parent="1" source="87w83l3menoGkr8GeRCS-2" target="87w83l3menoGkr8GeRCS-19">
          <mxGeometry relative="1" as="geometry" />
        </mxCell>
        <mxCell id="87w83l3menoGkr8GeRCS-2" value="" style="ellipse;whiteSpace=wrap;html=1;aspect=fixed;" vertex="1" parent="1">
          <mxGeometry x="440" y="120" width="40" height="40" as="geometry" />
        </mxCell>
        <mxCell id="87w83l3menoGkr8GeRCS-14" style="rounded=0;orthogonalLoop=1;jettySize=auto;html=1;exitX=0.5;exitY=1;exitDx=0;exitDy=0;entryX=0.5;entryY=0;entryDx=0;entryDy=0;endArrow=none;endFill=0;" edge="1" parent="1" source="87w83l3menoGkr8GeRCS-3" target="87w83l3menoGkr8GeRCS-13">
          <mxGeometry relative="1" as="geometry" />
        </mxCell>
        <mxCell id="87w83l3menoGkr8GeRCS-15" style="rounded=0;orthogonalLoop=1;jettySize=auto;html=1;exitX=0.5;exitY=1;exitDx=0;exitDy=0;entryX=0.5;entryY=0;entryDx=0;entryDy=0;endArrow=none;endFill=0;" edge="1" parent="1" source="87w83l3menoGkr8GeRCS-3" target="87w83l3menoGkr8GeRCS-12">
          <mxGeometry relative="1" as="geometry" />
        </mxCell>
        <mxCell id="87w83l3menoGkr8GeRCS-16" style="rounded=0;orthogonalLoop=1;jettySize=auto;html=1;exitX=0.5;exitY=1;exitDx=0;exitDy=0;entryX=0.5;entryY=0;entryDx=0;entryDy=0;endArrow=none;endFill=0;" edge="1" parent="1" source="87w83l3menoGkr8GeRCS-3" target="87w83l3menoGkr8GeRCS-11">
          <mxGeometry relative="1" as="geometry" />
        </mxCell>
        <mxCell id="87w83l3menoGkr8GeRCS-17" style="rounded=0;orthogonalLoop=1;jettySize=auto;html=1;exitX=0.5;exitY=1;exitDx=0;exitDy=0;entryX=0.5;entryY=0;entryDx=0;entryDy=0;endArrow=none;endFill=0;" edge="1" parent="1" source="87w83l3menoGkr8GeRCS-3" target="87w83l3menoGkr8GeRCS-10">
          <mxGeometry relative="1" as="geometry" />
        </mxCell>
        <mxCell id="87w83l3menoGkr8GeRCS-3" value="" style="ellipse;whiteSpace=wrap;html=1;aspect=fixed;" vertex="1" parent="1">
          <mxGeometry x="360" y="120" width="40" height="40" as="geometry" />
        </mxCell>
        <mxCell id="87w83l3menoGkr8GeRCS-4" value="W" style="ellipse;whiteSpace=wrap;html=1;aspect=fixed;" vertex="1" parent="1">
          <mxGeometry x="280" y="120" width="40" height="40" as="geometry" />
        </mxCell>
        <mxCell id="87w83l3menoGkr8GeRCS-5" value="S" style="ellipse;whiteSpace=wrap;html=1;aspect=fixed;" vertex="1" parent="1">
          <mxGeometry x="200" y="120" width="40" height="40" as="geometry" />
        </mxCell>
        <mxCell id="87w83l3menoGkr8GeRCS-10" value="W" style="ellipse;whiteSpace=wrap;html=1;aspect=fixed;" vertex="1" parent="1">
          <mxGeometry x="370" y="200" width="40" height="40" as="geometry" />
        </mxCell>
        <mxCell id="87w83l3menoGkr8GeRCS-11" value="S" style="ellipse;whiteSpace=wrap;html=1;aspect=fixed;" vertex="1" parent="1">
          <mxGeometry x="310" y="200" width="40" height="40" as="geometry" />
        </mxCell>
        <mxCell id="87w83l3menoGkr8GeRCS-12" value="S" style="ellipse;whiteSpace=wrap;html=1;aspect=fixed;" vertex="1" parent="1">
          <mxGeometry x="250" y="200" width="40" height="40" as="geometry" />
        </mxCell>
        <mxCell id="87w83l3menoGkr8GeRCS-13" value="S" style="ellipse;whiteSpace=wrap;html=1;aspect=fixed;" vertex="1" parent="1">
          <mxGeometry x="190" y="200" width="40" height="40" as="geometry" />
        </mxCell>
        <mxCell id="87w83l3menoGkr8GeRCS-19" value="W" style="ellipse;whiteSpace=wrap;html=1;aspect=fixed;" vertex="1" parent="1">
          <mxGeometry x="610" y="200" width="40" height="40" as="geometry" />
        </mxCell>
        <mxCell id="87w83l3menoGkr8GeRCS-20" value="W" style="ellipse;whiteSpace=wrap;html=1;aspect=fixed;" vertex="1" parent="1">
          <mxGeometry x="550" y="200" width="40" height="40" as="geometry" />
        </mxCell>
        <mxCell id="87w83l3menoGkr8GeRCS-21" value="S" style="ellipse;whiteSpace=wrap;html=1;aspect=fixed;" vertex="1" parent="1">
          <mxGeometry x="490" y="200" width="40" height="40" as="geometry" />
        </mxCell>
        <mxCell id="87w83l3menoGkr8GeRCS-22" value="S" style="ellipse;whiteSpace=wrap;html=1;aspect=fixed;" vertex="1" parent="1">
          <mxGeometry x="430" y="200" width="40" height="40" as="geometry" />
        </mxCell>
      </root>
    </mxGraphModel>
  </diagram>
</mxfile>
